<?xml version="1.0" encoding="UTF-8"?>
<!--
  Backup: System Audio header orb (mirrors SystemAudioSession.tsx / AudioLevelBars).
  Rendering: SVG + SMIL — not Canvas, not Lottie, not a server "backend".
  Live app: React updates bar lengths from audio levels; this file uses a fixed mid-level snapshot + pulse.
  Open in any browser or embed. Accent color #b72301 matches default theme signal.
-->
<svg xmlns="http://www.w3.org/2000/svg" width="86" height="86" viewBox="0 0 86 86" overflow="visible">
  <defs>
    <filter id="orb-blur" x="-30%" y="-30%" width="160%" height="160%"><feGaussianBlur stdDeviation="4"/></filter>
    <filter id="orb-core" x="-15%" y="-15%" width="130%" height="130%"><feGaussianBlur stdDeviation="2"/></filter>
    <radialGradient id="orb-center" cx="50%" cy="50%" r="50%">
      <stop offset="0%" stop-color="#b72301" stop-opacity="0.88"/>
      <stop offset="60%" stop-color="#b72301" stop-opacity="0.55"/>
      <stop offset="100%" stop-color="#b72301" stop-opacity="0"/>
    </radialGradient>
    <radialGradient id="orb-outer" cx="50%" cy="50%" r="50%">
      <stop offset="0%" stop-color="#b72301" stop-opacity="0"/>
      <stop offset="70%" stop-color="#b72301" stop-opacity="0.22"/>
      <stop offset="100%" stop-color="#b72301" stop-opacity="0"/>
    </radialGradient>
  </defs>
  <circle cx="43" cy="43" r="50.80" fill="url(#orb-outer)" opacity="0.098" filter="url(#orb-blur)"/>
  <circle cx="43" cy="43" r="23.32" fill="none" stroke="#b72301" stroke-opacity="0.22" stroke-width="1.5" stroke-dasharray="3 5" opacity="0.059"/>
  <line x1="43.00" y1="28.00" x2="43.00" y2="13.86" stroke="#b72301" stroke-opacity="0.0240" stroke-width="6.5" stroke-linecap="round" filter="url(#orb-blur)"/>
  <line x1="44.47" y1="28.07" x2="45.86" y2="14.00" stroke="#b72301" stroke-opacity="0.0240" stroke-width="6.5" stroke-linecap="round" filter="url(#orb-blur)"/>
  <line x1="45.93" y1="28.29" x2="48.68" y2="14.42" stroke="#b72301" stroke-opacity="0.0240" stroke-width="6.5" stroke-linecap="round" filter="url(#orb-blur)"/>
  <line x1="47.35" y1="28.65" x2="51.46" y2="15.11" stroke="#b72301" stroke-opacity="0.0240" stroke-width="6.5" stroke-linecap="round" filter="url(#orb-blur)"/>
  <line x1="48.74" y1="29.14" x2="54.15" y2="16.08" stroke="#b72301" stroke-opacity="0.0240" stroke-width="6.5" stroke-linecap="round" filter="url(#orb-blur)"/>
  <line x1="50.07" y1="29.77" x2="56.74" y2="17.30" stroke="#b72301" stroke-opacity="0.0240" stroke-width="6.5" stroke-linecap="round" filter="url(#orb-blur)"/>
  <line x1="51.33" y1="30.53" x2="59.19" y2="18.77" stroke="#b72301" stroke-opacity="0.0240" stroke-width="6.5" stroke-linecap="round" filter="url(#orb-blur)"/>
  <line x1="52.52" y1="31.40" x2="61.49" y2="20.47" stroke="#b72301" stroke-opacity="0.0240" stroke-width="6.5" stroke-linecap="round" filter="url(#orb-blur)"/>
  <line x1="53.61" y1="32.39" x2="63.61" y2="22.39" stroke="#b72301" stroke-opacity="0.0240" stroke-width="6.5" stroke-linecap="round" filter="url(#orb-blur)"/>
  <line x1="54.60" y1="33.48" x2="65.53" y2="24.51" stroke="#b72301" stroke-opacity="0.0240" stroke-width="6.5" stroke-linecap="round" filter="url(#orb-blur)"/>
  <line x1="55.47" y1="34.67" x2="67.23" y2="26.81" stroke="#b72301" stroke-opacity="0.0240" stroke-width="6.5" stroke-linecap="round" filter="url(#orb-blur)"/>
  <line x1="56.23" y1="35.93" x2="68.70" y2="29.26" stroke="#b72301" stroke-opacity="0.0240" stroke-width="6.5" stroke-linecap="round" filter="url(#orb-blur)"/>
  <line x1="56.86" y1="37.26" x2="69.92" y2="31.85" stroke="#b72301" stroke-opacity="0.0240" stroke-width="6.5" stroke-linecap="round" filter="url(#orb-blur)"/>
  <line x1="57.35" y1="38.65" x2="70.89" y2="34.54" stroke="#b72301" stroke-opacity="0.0240" stroke-width="6.5" stroke-linecap="round" filter="url(#orb-blur)"/>
  <line x1="57.71" y1="40.07" x2="71.58" y2="37.32" stroke="#b72301" stroke-opacity="0.0240" stroke-width="6.5" stroke-linecap="round" filter="url(#orb-blur)"/>
  <line x1="57.93" y1="41.53" x2="72.00" y2="40.14" stroke="#b72301" stroke-opacity="0.0240" stroke-width="6.5" stroke-linecap="round" filter="url(#orb-blur)"/>
  <line x1="58.00" y1="43.00" x2="72.14" y2="43.00" stroke="#b72301" stroke-opacity="0.0240" stroke-width="6.5" stroke-linecap="round" filter="url(#orb-blur)"/>
  <line x1="57.93" y1="44.47" x2="72.00" y2="45.86" stroke="#b72301" stroke-opacity="0.0240" stroke-width="6.5" stroke-linecap="round" filter="url(#orb-blur)"/>
  <line x1="57.71" y1="45.93" x2="71.58" y2="48.68" stroke="#b72301" stroke-opacity="0.0240" stroke-width="6.5" stroke-linecap="round" filter="url(#orb-blur)"/>
  <line x1="57.35" y1="47.35" x2="70.89" y2="51.46" stroke="#b72301" stroke-opacity="0.0240" stroke-width="6.5" stroke-linecap="round" filter="url(#orb-blur)"/>
  <line x1="56.86" y1="48.74" x2="69.92" y2="54.15" stroke="#b72301" stroke-opacity="0.0240" stroke-width="6.5" stroke-linecap="round" filter="url(#orb-blur)"/>
  <line x1="56.23" y1="50.07" x2="68.70" y2="56.74" stroke="#b72301" stroke-opacity="0.0240" stroke-width="6.5" stroke-linecap="round" filter="url(#orb-blur)"/>
  <line x1="55.47" y1="51.33" x2="67.23" y2="59.19" stroke="#b72301" stroke-opacity="0.0240" stroke-width="6.5" stroke-linecap="round" filter="url(#orb-blur)"/>
  <line x1="54.60" y1="52.52" x2="65.53" y2="61.49" stroke="#b72301" stroke-opacity="0.0240" stroke-width="6.5" stroke-linecap="round" filter="url(#orb-blur)"/>
  <line x1="53.61" y1="53.61" x2="63.61" y2="63.61" stroke="#b72301" stroke-opacity="0.0240" stroke-width="6.5" stroke-linecap="round" filter="url(#orb-blur)"/>
  <line x1="52.52" y1="54.60" x2="61.49" y2="65.53" stroke="#b72301" stroke-opacity="0.0240" stroke-width="6.5" stroke-linecap="round" filter="url(#orb-blur)"/>
  <line x1="51.33" y1="55.47" x2="59.19" y2="67.23" stroke="#b72301" stroke-opacity="0.0240" stroke-width="6.5" stroke-linecap="round" filter="url(#orb-blur)"/>
  <line x1="50.07" y1="56.23" x2="56.74" y2="68.70" stroke="#b72301" stroke-opacity="0.0240" stroke-width="6.5" stroke-linecap="round" filter="url(#orb-blur)"/>
  <line x1="48.74" y1="56.86" x2="54.15" y2="69.92" stroke="#b72301" stroke-opacity="0.0240" stroke-width="6.5" stroke-linecap="round" filter="url(#orb-blur)"/>
  <line x1="47.35" y1="57.35" x2="51.46" y2="70.89" stroke="#b72301" stroke-opacity="0.0240" stroke-width="6.5" stroke-linecap="round" filter="url(#orb-blur)"/>
  <line x1="45.93" y1="57.71" x2="48.68" y2="71.58" stroke="#b72301" stroke-opacity="0.0240" stroke-width="6.5" stroke-linecap="round" filter="url(#orb-blur)"/>
  <line x1="44.47" y1="57.93" x2="45.86" y2="72.00" stroke="#b72301" stroke-opacity="0.0240" stroke-width="6.5" stroke-linecap="round" filter="url(#orb-blur)"/>
  <line x1="43.00" y1="58.00" x2="43.00" y2="72.14" stroke="#b72301" stroke-opacity="0.0240" stroke-width="6.5" stroke-linecap="round" filter="url(#orb-blur)"/>
  <line x1="41.53" y1="57.93" x2="40.14" y2="72.00" stroke="#b72301" stroke-opacity="0.0240" stroke-width="6.5" stroke-linecap="round" filter="url(#orb-blur)"/>
  <line x1="40.07" y1="57.71" x2="37.32" y2="71.58" stroke="#b72301" stroke-opacity="0.0240" stroke-width="6.5" stroke-linecap="round" filter="url(#orb-blur)"/>
  <line x1="38.65" y1="57.35" x2="34.54" y2="70.89" stroke="#b72301" stroke-opacity="0.0240" stroke-width="6.5" stroke-linecap="round" filter="url(#orb-blur)"/>
  <line x1="37.26" y1="56.86" x2="31.85" y2="69.92" stroke="#b72301" stroke-opacity="0.0240" stroke-width="6.5" stroke-linecap="round" filter="url(#orb-blur)"/>
  <line x1="35.93" y1="56.23" x2="29.26" y2="68.70" stroke="#b72301" stroke-opacity="0.0240" stroke-width="6.5" stroke-linecap="round" filter="url(#orb-blur)"/>
  <line x1="34.67" y1="55.47" x2="26.81" y2="67.23" stroke="#b72301" stroke-opacity="0.0240" stroke-width="6.5" stroke-linecap="round" filter="url(#orb-blur)"/>
  <line x1="33.48" y1="54.60" x2="24.51" y2="65.53" stroke="#b72301" stroke-opacity="0.0240" stroke-width="6.5" stroke-linecap="round" filter="url(#orb-blur)"/>
  <line x1="32.39" y1="53.61" x2="22.39" y2="63.61" stroke="#b72301" stroke-opacity="0.0240" stroke-width="6.5" stroke-linecap="round" filter="url(#orb-blur)"/>
  <line x1="31.40" y1="52.52" x2="20.47" y2="61.49" stroke="#b72301" stroke-opacity="0.0240" stroke-width="6.5" stroke-linecap="round" filter="url(#orb-blur)"/>
  <line x1="30.53" y1="51.33" x2="18.77" y2="59.19" stroke="#b72301" stroke-opacity="0.0240" stroke-width="6.5" stroke-linecap="round" filter="url(#orb-blur)"/>
  <line x1="29.77" y1="50.07" x2="17.30" y2="56.74" stroke="#b72301" stroke-opacity="0.0240" stroke-width="6.5" stroke-linecap="round" filter="url(#orb-blur)"/>
  <line x1="29.14" y1="48.74" x2="16.08" y2="54.15" stroke="#b72301" stroke-opacity="0.0240" stroke-width="6.5" stroke-linecap="round" filter="url(#orb-blur)"/>
  <line x1="28.65" y1="47.35" x2="15.11" y2="51.46" stroke="#b72301" stroke-opacity="0.0240" stroke-width="6.5" stroke-linecap="round" filter="url(#orb-blur)"/>
  <line x1="28.29" y1="45.93" x2="14.42" y2="48.68" stroke="#b72301" stroke-opacity="0.0240" stroke-width="6.5" stroke-linecap="round" filter="url(#orb-blur)"/>
  <line x1="28.07" y1="44.47" x2="14.00" y2="45.86" stroke="#b72301" stroke-opacity="0.0240" stroke-width="6.5" stroke-linecap="round" filter="url(#orb-blur)"/>
  <line x1="28.00" y1="43.00" x2="13.86" y2="43.00" stroke="#b72301" stroke-opacity="0.0240" stroke-width="6.5" stroke-linecap="round" filter="url(#orb-blur)"/>
  <line x1="28.07" y1="41.53" x2="14.00" y2="40.14" stroke="#b72301" stroke-opacity="0.0240" stroke-width="6.5" stroke-linecap="round" filter="url(#orb-blur)"/>
  <line x1="28.29" y1="40.07" x2="14.42" y2="37.32" stroke="#b72301" stroke-opacity="0.0240" stroke-width="6.5" stroke-linecap="round" filter="url(#orb-blur)"/>
  <line x1="28.65" y1="38.65" x2="15.11" y2="34.54" stroke="#b72301" stroke-opacity="0.0240" stroke-width="6.5" stroke-linecap="round" filter="url(#orb-blur)"/>
  <line x1="29.14" y1="37.26" x2="16.08" y2="31.85" stroke="#b72301" stroke-opacity="0.0240" stroke-width="6.5" stroke-linecap="round" filter="url(#orb-blur)"/>
  <line x1="29.77" y1="35.93" x2="17.30" y2="29.26" stroke="#b72301" stroke-opacity="0.0240" stroke-width="6.5" stroke-linecap="round" filter="url(#orb-blur)"/>
  <line x1="30.53" y1="34.67" x2="18.77" y2="26.81" stroke="#b72301" stroke-opacity="0.0240" stroke-width="6.5" stroke-linecap="round" filter="url(#orb-blur)"/>
  <line x1="31.40" y1="33.48" x2="20.47" y2="24.51" stroke="#b72301" stroke-opacity="0.0240" stroke-width="6.5" stroke-linecap="round" filter="url(#orb-blur)"/>
  <line x1="32.39" y1="32.39" x2="22.39" y2="22.39" stroke="#b72301" stroke-opacity="0.0240" stroke-width="6.5" stroke-linecap="round" filter="url(#orb-blur)"/>
  <line x1="33.48" y1="31.40" x2="24.51" y2="20.47" stroke="#b72301" stroke-opacity="0.0240" stroke-width="6.5" stroke-linecap="round" filter="url(#orb-blur)"/>
  <line x1="34.67" y1="30.53" x2="26.81" y2="18.77" stroke="#b72301" stroke-opacity="0.0240" stroke-width="6.5" stroke-linecap="round" filter="url(#orb-blur)"/>
  <line x1="35.93" y1="29.77" x2="29.26" y2="17.30" stroke="#b72301" stroke-opacity="0.0240" stroke-width="6.5" stroke-linecap="round" filter="url(#orb-blur)"/>
  <line x1="37.26" y1="29.14" x2="31.85" y2="16.08" stroke="#b72301" stroke-opacity="0.0240" stroke-width="6.5" stroke-linecap="round" filter="url(#orb-blur)"/>
  <line x1="38.65" y1="28.65" x2="34.54" y2="15.11" stroke="#b72301" stroke-opacity="0.0240" stroke-width="6.5" stroke-linecap="round" filter="url(#orb-blur)"/>
  <line x1="40.07" y1="28.29" x2="37.32" y2="14.42" stroke="#b72301" stroke-opacity="0.0240" stroke-width="6.5" stroke-linecap="round" filter="url(#orb-blur)"/>
  <line x1="41.53" y1="28.07" x2="40.14" y2="14.00" stroke="#b72301" stroke-opacity="0.0240" stroke-width="6.5" stroke-linecap="round" filter="url(#orb-blur)"/>
  <line x1="43.00" y1="28.00" x2="43.00" y2="13.86" stroke="#b72301" stroke-opacity="0.1370" stroke-width="1.6" stroke-linecap="round"/>
  <line x1="44.47" y1="28.07" x2="45.86" y2="14.00" stroke="#b72301" stroke-opacity="0.1370" stroke-width="1.6" stroke-linecap="round"/>
  <line x1="45.93" y1="28.29" x2="48.68" y2="14.42" stroke="#b72301" stroke-opacity="0.1370" stroke-width="1.6" stroke-linecap="round"/>
  <line x1="47.35" y1="28.65" x2="51.46" y2="15.11" stroke="#b72301" stroke-opacity="0.1370" stroke-width="1.6" stroke-linecap="round"/>
  <line x1="48.74" y1="29.14" x2="54.15" y2="16.08" stroke="#b72301" stroke-opacity="0.1370" stroke-width="1.6" stroke-linecap="round"/>
  <line x1="50.07" y1="29.77" x2="56.74" y2="17.30" stroke="#b72301" stroke-opacity="0.1370" stroke-width="1.6" stroke-linecap="round"/>
  <line x1="51.33" y1="30.53" x2="59.19" y2="18.77" stroke="#b72301" stroke-opacity="0.1370" stroke-width="1.6" stroke-linecap="round"/>
  <line x1="52.52" y1="31.40" x2="61.49" y2="20.47" stroke="#b72301" stroke-opacity="0.1370" stroke-width="1.6" stroke-linecap="round"/>
  <line x1="53.61" y1="32.39" x2="63.61" y2="22.39" stroke="#b72301" stroke-opacity="0.1370" stroke-width="1.6" stroke-linecap="round"/>
  <line x1="54.60" y1="33.48" x2="65.53" y2="24.51" stroke="#b72301" stroke-opacity="0.1370" stroke-width="1.6" stroke-linecap="round"/>
  <line x1="55.47" y1="34.67" x2="67.23" y2="26.81" stroke="#b72301" stroke-opacity="0.1370" stroke-width="1.6" stroke-linecap="round"/>
  <line x1="56.23" y1="35.93" x2="68.70" y2="29.26" stroke="#b72301" stroke-opacity="0.1370" stroke-width="1.6" stroke-linecap="round"/>
  <line x1="56.86" y1="37.26" x2="69.92" y2="31.85" stroke="#b72301" stroke-opacity="0.1370" stroke-width="1.6" stroke-linecap="round"/>
  <line x1="57.35" y1="38.65" x2="70.89" y2="34.54" stroke="#b72301" stroke-opacity="0.1370" stroke-width="1.6" stroke-linecap="round"/>
  <line x1="57.71" y1="40.07" x2="71.58" y2="37.32" stroke="#b72301" stroke-opacity="0.1370" stroke-width="1.6" stroke-linecap="round"/>
  <line x1="57.93" y1="41.53" x2="72.00" y2="40.14" stroke="#b72301" stroke-opacity="0.1370" stroke-width="1.6" stroke-linecap="round"/>
  <line x1="58.00" y1="43.00" x2="72.14" y2="43.00" stroke="#b72301" stroke-opacity="0.1370" stroke-width="1.6" stroke-linecap="round"/>
  <line x1="57.93" y1="44.47" x2="72.00" y2="45.86" stroke="#b72301" stroke-opacity="0.1370" stroke-width="1.6" stroke-linecap="round"/>
  <line x1="57.71" y1="45.93" x2="71.58" y2="48.68" stroke="#b72301" stroke-opacity="0.1370" stroke-width="1.6" stroke-linecap="round"/>
  <line x1="57.35" y1="47.35" x2="70.89" y2="51.46" stroke="#b72301" stroke-opacity="0.1370" stroke-width="1.6" stroke-linecap="round"/>
  <line x1="56.86" y1="48.74" x2="69.92" y2="54.15" stroke="#b72301" stroke-opacity="0.1370" stroke-width="1.6" stroke-linecap="round"/>
  <line x1="56.23" y1="50.07" x2="68.70" y2="56.74" stroke="#b72301" stroke-opacity="0.1370" stroke-width="1.6" stroke-linecap="round"/>
  <line x1="55.47" y1="51.33" x2="67.23" y2="59.19" stroke="#b72301" stroke-opacity="0.1370" stroke-width="1.6" stroke-linecap="round"/>
  <line x1="54.60" y1="52.52" x2="65.53" y2="61.49" stroke="#b72301" stroke-opacity="0.1370" stroke-width="1.6" stroke-linecap="round"/>
  <line x1="53.61" y1="53.61" x2="63.61" y2="63.61" stroke="#b72301" stroke-opacity="0.1370" stroke-width="1.6" stroke-linecap="round"/>
  <line x1="52.52" y1="54.60" x2="61.49" y2="65.53" stroke="#b72301" stroke-opacity="0.1370" stroke-width="1.6" stroke-linecap="round"/>
  <line x1="51.33" y1="55.47" x2="59.19" y2="67.23" stroke="#b72301" stroke-opacity="0.1370" stroke-width="1.6" stroke-linecap="round"/>
  <line x1="50.07" y1="56.23" x2="56.74" y2="68.70" stroke="#b72301" stroke-opacity="0.1370" stroke-width="1.6" stroke-linecap="round"/>
  <line x1="48.74" y1="56.86" x2="54.15" y2="69.92" stroke="#b72301" stroke-opacity="0.1370" stroke-width="1.6" stroke-linecap="round"/>
  <line x1="47.35" y1="57.35" x2="51.46" y2="70.89" stroke="#b72301" stroke-opacity="0.1370" stroke-width="1.6" stroke-linecap="round"/>
  <line x1="45.93" y1="57.71" x2="48.68" y2="71.58" stroke="#b72301" stroke-opacity="0.1370" stroke-width="1.6" stroke-linecap="round"/>
  <line x1="44.47" y1="57.93" x2="45.86" y2="72.00" stroke="#b72301" stroke-opacity="0.1370" stroke-width="1.6" stroke-linecap="round"/>
  <line x1="43.00" y1="58.00" x2="43.00" y2="72.14" stroke="#b72301" stroke-opacity="0.1370" stroke-width="1.6" stroke-linecap="round"/>
  <line x1="41.53" y1="57.93" x2="40.14" y2="72.00" stroke="#b72301" stroke-opacity="0.1370" stroke-width="1.6" stroke-linecap="round"/>
  <line x1="40.07" y1="57.71" x2="37.32" y2="71.58" stroke="#b72301" stroke-opacity="0.1370" stroke-width="1.6" stroke-linecap="round"/>
  <line x1="38.65" y1="57.35" x2="34.54" y2="70.89" stroke="#b72301" stroke-opacity="0.1370" stroke-width="1.6" stroke-linecap="round"/>
  <line x1="37.26" y1="56.86" x2="31.85" y2="69.92" stroke="#b72301" stroke-opacity="0.1370" stroke-width="1.6" stroke-linecap="round"/>
  <line x1="35.93" y1="56.23" x2="29.26" y2="68.70" stroke="#b72301" stroke-opacity="0.1370" stroke-width="1.6" stroke-linecap="round"/>
  <line x1="34.67" y1="55.47" x2="26.81" y2="67.23" stroke="#b72301" stroke-opacity="0.1370" stroke-width="1.6" stroke-linecap="round"/>
  <line x1="33.48" y1="54.60" x2="24.51" y2="65.53" stroke="#b72301" stroke-opacity="0.1370" stroke-width="1.6" stroke-linecap="round"/>
  <line x1="32.39" y1="53.61" x2="22.39" y2="63.61" stroke="#b72301" stroke-opacity="0.1370" stroke-width="1.6" stroke-linecap="round"/>
  <line x1="31.40" y1="52.52" x2="20.47" y2="61.49" stroke="#b72301" stroke-opacity="0.1370" stroke-width="1.6" stroke-linecap="round"/>
  <line x1="30.53" y1="51.33" x2="18.77" y2="59.19" stroke="#b72301" stroke-opacity="0.1370" stroke-width="1.6" stroke-linecap="round"/>
  <line x1="29.77" y1="50.07" x2="17.30" y2="56.74" stroke="#b72301" stroke-opacity="0.1370" stroke-width="1.6" stroke-linecap="round"/>
  <line x1="29.14" y1="48.74" x2="16.08" y2="54.15" stroke="#b72301" stroke-opacity="0.1370" stroke-width="1.6" stroke-linecap="round"/>
  <line x1="28.65" y1="47.35" x2="15.11" y2="51.46" stroke="#b72301" stroke-opacity="0.1370" stroke-width="1.6" stroke-linecap="round"/>
  <line x1="28.29" y1="45.93" x2="14.42" y2="48.68" stroke="#b72301" stroke-opacity="0.1370" stroke-width="1.6" stroke-linecap="round"/>
  <line x1="28.07" y1="44.47" x2="14.00" y2="45.86" stroke="#b72301" stroke-opacity="0.1370" stroke-width="1.6" stroke-linecap="round"/>
  <line x1="28.00" y1="43.00" x2="13.86" y2="43.00" stroke="#b72301" stroke-opacity="0.1370" stroke-width="1.6" stroke-linecap="round"/>
  <line x1="28.07" y1="41.53" x2="14.00" y2="40.14" stroke="#b72301" stroke-opacity="0.1370" stroke-width="1.6" stroke-linecap="round"/>
  <line x1="28.29" y1="40.07" x2="14.42" y2="37.32" stroke="#b72301" stroke-opacity="0.1370" stroke-width="1.6" stroke-linecap="round"/>
  <line x1="28.65" y1="38.65" x2="15.11" y2="34.54" stroke="#b72301" stroke-opacity="0.1370" stroke-width="1.6" stroke-linecap="round"/>
  <line x1="29.14" y1="37.26" x2="16.08" y2="31.85" stroke="#b72301" stroke-opacity="0.1370" stroke-width="1.6" stroke-linecap="round"/>
  <line x1="29.77" y1="35.93" x2="17.30" y2="29.26" stroke="#b72301" stroke-opacity="0.1370" stroke-width="1.6" stroke-linecap="round"/>
  <line x1="30.53" y1="34.67" x2="18.77" y2="26.81" stroke="#b72301" stroke-opacity="0.1370" stroke-width="1.6" stroke-linecap="round"/>
  <line x1="31.40" y1="33.48" x2="20.47" y2="24.51" stroke="#b72301" stroke-opacity="0.1370" stroke-width="1.6" stroke-linecap="round"/>
  <line x1="32.39" y1="32.39" x2="22.39" y2="22.39" stroke="#b72301" stroke-opacity="0.1370" stroke-width="1.6" stroke-linecap="round"/>
  <line x1="33.48" y1="31.40" x2="24.51" y2="20.47" stroke="#b72301" stroke-opacity="0.1370" stroke-width="1.6" stroke-linecap="round"/>
  <line x1="34.67" y1="30.53" x2="26.81" y2="18.77" stroke="#b72301" stroke-opacity="0.1370" stroke-width="1.6" stroke-linecap="round"/>
  <line x1="35.93" y1="29.77" x2="29.26" y2="17.30" stroke="#b72301" stroke-opacity="0.1370" stroke-width="1.6" stroke-linecap="round"/>
  <line x1="37.26" y1="29.14" x2="31.85" y2="16.08" stroke="#b72301" stroke-opacity="0.1370" stroke-width="1.6" stroke-linecap="round"/>
  <line x1="38.65" y1="28.65" x2="34.54" y2="15.11" stroke="#b72301" stroke-opacity="0.1370" stroke-width="1.6" stroke-linecap="round"/>
  <line x1="40.07" y1="28.29" x2="37.32" y2="14.42" stroke="#b72301" stroke-opacity="0.1370" stroke-width="1.6" stroke-linecap="round"/>
  <line x1="41.53" y1="28.07" x2="40.14" y2="14.00" stroke="#b72301" stroke-opacity="0.1370" stroke-width="1.6" stroke-linecap="round"/>
  <g transform="translate(43 43)">
    <g>
      <animateTransform attributeName="transform" type="scale" values="1;1.34;1" keyTimes="0;0.5;1" dur="2.5s" repeatCount="indefinite" calcMode="spline" keySplines="0.42 0 0.58 1; 0.42 0 0.58 1"/>
      <circle cx="0" cy="0" r="15" fill="url(#orb-center)" opacity="0.2" filter="url(#orb-core)"/>
    </g>
  </g>
  <circle cx="43" cy="43" r="3" fill="#b72301" opacity="0.35"/>
</svg>
